<svg width="173" height="173" viewBox="0 0 173 173" fill="none" xmlns="http://www.w3.org/2000/svg">
<g clip-path="url(#clip0_692_50206)">
<path d="M111.189 0L61.8108 0C27.6737 0 0 27.6737 0 61.8108L0 111.189C0 145.326 27.6737 173 61.8108 173H111.189C145.326 173 173 145.326 173 111.189V61.8108C173 27.6737 145.326 0 111.189 0Z" fill="#06598F"/>
<path d="M131.021 68.6919V122.117C131.021 124.57 130.024 126.798 128.411 128.411C126.798 130.024 124.57 131.021 122.117 131.021C117.2 131.021 113.212 127.033 113.212 122.117V68.6919C113.212 66.2386 112.216 64.0101 110.603 62.3974C108.99 60.7847 106.762 59.7877 104.308 59.7877C101.855 59.7877 99.6266 60.7847 98.0139 62.3974C96.4012 64.0101 95.4042 66.2386 95.4042 68.6919V122.117C95.4042 124.57 94.4073 126.798 92.7946 128.411C91.1819 130.024 88.9534 131.021 86.5001 131.021C81.5838 131.021 77.596 127.033 77.596 122.117V68.6919C77.596 66.2386 76.599 64.0101 74.9863 62.3974C73.3736 60.7847 71.1451 59.7877 68.6919 59.7877C66.2386 59.7877 64.0101 60.7847 62.3974 62.3974C60.7847 64.0101 59.7877 66.2386 59.7877 68.6919V122.117C59.7877 124.57 58.7908 126.798 57.1781 128.411C55.5654 130.024 53.3369 131.021 50.8836 131.021C45.9673 131.021 41.9795 127.033 41.9795 122.117V68.6919C41.9795 66.2386 42.9764 64.0101 44.5892 62.3974C46.2019 60.7847 48.4303 59.7877 50.8836 59.7877C53.3369 59.7877 55.5654 58.7908 57.1781 57.1781C58.7908 55.5654 59.7877 53.3369 59.7877 50.8836C59.7877 48.4303 60.7847 46.2019 62.3974 44.5892C64.0101 42.9764 66.2386 41.9795 68.6919 41.9795C71.1451 41.9795 73.3736 42.9764 74.9863 44.5892C76.599 46.2019 77.596 48.4303 77.596 50.8836C77.596 55.7999 81.5838 59.7877 86.5001 59.7877C88.9534 59.7877 91.1819 58.7908 92.7946 57.1781C94.4073 55.5654 95.4042 53.3369 95.4042 50.8836C95.4042 48.4303 96.4012 46.2019 98.0139 44.5892C99.6266 42.9764 101.855 41.9795 104.308 41.9795C106.762 41.9795 108.99 42.9764 110.603 44.5892C112.216 46.2019 113.212 48.4303 113.212 50.8836C113.212 55.7999 117.2 59.7877 122.117 59.7877C124.57 59.7877 126.798 60.7847 128.411 62.3974C130.024 64.0101 131.021 66.2386 131.021 68.6919Z" fill="white" stroke="white" stroke-width="0.977401" stroke-miterlimit="10"/>
</g>
<defs>
<clipPath id="clip0_692_50206">
<rect width="173" height="173" fill="white"/>
</clipPath>
</defs>
</svg>
