<svg width="812" height="190" viewBox="0 0 812 190" fill="none" xmlns="http://www.w3.org/2000/svg">
<g clip-path="url(#clip0_1703_36119)">
<path d="M111.189 8.5L61.8108 8.5C27.6737 8.5 0 36.1737 0 70.3108L0 119.689C0 153.826 27.6737 181.5 61.8108 181.5H111.189C145.326 181.5 173 153.826 173 119.689V70.3108C173 36.1737 145.326 8.5 111.189 8.5Z" fill="#06598F"/>
<path d="M131.021 77.2124V130.637C131.021 133.09 130.024 135.319 128.411 136.932C126.798 138.544 124.57 139.541 122.117 139.541C117.2 139.541 113.212 135.553 113.212 130.637V77.2124C113.212 74.7591 112.216 72.5306 110.603 70.9179C108.99 69.3052 106.762 68.3082 104.308 68.3082C101.855 68.3082 99.6266 69.3052 98.0139 70.9179C96.4012 72.5306 95.4042 74.7591 95.4042 77.2124V130.637C95.4042 133.09 94.4073 135.319 92.7946 136.932C91.1819 138.544 88.9534 139.541 86.5001 139.541C81.5838 139.541 77.596 135.553 77.596 130.637V77.2124C77.596 74.7591 76.599 72.5306 74.9863 70.9179C73.3736 69.3052 71.1451 68.3082 68.6919 68.3082C66.2386 68.3082 64.0101 69.3052 62.3974 70.9179C60.7847 72.5306 59.7877 74.7591 59.7877 77.2124V130.637C59.7877 133.09 58.7908 135.319 57.1781 136.932C55.5654 138.544 53.3369 139.541 50.8836 139.541C45.9673 139.541 41.9795 135.553 41.9795 130.637V77.2124C41.9795 74.7591 42.9764 72.5306 44.5892 70.9179C46.2019 69.3052 48.4303 68.3082 50.8836 68.3082C53.3369 68.3082 55.5654 67.3113 57.1781 65.6986C58.7908 64.0859 59.7877 61.8574 59.7877 59.4041C59.7877 56.9508 60.7847 54.7224 62.3974 53.1097C64.0101 51.4969 66.2386 50.5 68.6919 50.5C71.1451 50.5 73.3736 51.4969 74.9863 53.1097C76.599 54.7224 77.596 56.9508 77.596 59.4041C77.596 64.3205 81.5838 68.3082 86.5001 68.3082C88.9534 68.3082 91.1819 67.3113 92.7946 65.6986C94.4073 64.0859 95.4042 61.8574 95.4042 59.4041C95.4042 56.9508 96.4012 54.7224 98.0139 53.1097C99.6266 51.4969 101.855 50.5 104.308 50.5C106.762 50.5 108.99 51.4969 110.603 53.1097C112.216 54.7224 113.212 56.9508 113.212 59.4041C113.212 64.3205 117.2 68.3082 122.117 68.3082C124.57 68.3082 126.798 69.3052 128.411 70.9179C130.024 72.5306 131.021 74.7591 131.021 77.2124Z" fill="white" stroke="white" stroke-width="0.977401" stroke-miterlimit="10"/>
</g>
<path d="M205.408 143C203.445 143 201.739 142.275 200.288 140.824C198.837 139.373 198.112 137.667 198.112 135.704V56.856C198.112 54.8933 198.837 53.1867 200.288 51.736C201.739 50.2853 203.445 49.56 205.408 49.56H208.608C210.827 49.56 212.875 50.1573 214.752 51.352C216.629 52.5467 217.995 54.1253 218.848 56.088L241.248 104.472C241.248 104.557 241.291 104.6 241.376 104.6C241.461 104.6 241.504 104.557 241.504 104.472L263.904 56.088C264.757 54.1253 266.123 52.5467 268 51.352C269.877 50.1573 271.925 49.56 274.144 49.56H277.856C279.819 49.56 281.525 50.2853 282.976 51.736C284.427 53.1867 285.152 54.8933 285.152 56.856V135.704C285.152 137.667 284.427 139.373 282.976 140.824C281.525 142.275 279.819 143 277.856 143H275.04C273.077 143 271.371 142.275 269.92 140.824C268.469 139.373 267.744 137.667 267.744 135.704V80.024C267.744 79.9387 267.701 79.896 267.616 79.896C267.531 79.896 267.488 79.9387 267.488 80.024L252.128 112.92C251.189 114.883 249.739 116.504 247.776 117.784C245.899 118.979 243.893 119.576 241.76 119.576H240.992C238.859 119.576 236.811 118.979 234.848 117.784C232.971 116.504 231.563 114.883 230.624 112.92L215.264 80.024C215.264 79.9387 215.221 79.896 215.136 79.896C215.051 79.896 215.008 79.9387 215.008 80.024V135.704C215.008 137.667 214.283 139.373 212.832 140.824C211.381 142.275 209.675 143 207.712 143H205.408ZM312.658 143C310.695 143 308.989 142.275 307.538 140.824C306.087 139.373 305.362 137.667 305.362 135.704V56.856C305.362 54.8933 306.087 53.1867 307.538 51.736C308.989 50.2853 310.695 49.56 312.658 49.56H356.178C358.141 49.56 359.847 50.2853 361.298 51.736C362.749 53.1867 363.474 54.8933 363.474 56.856C363.474 58.8187 362.749 60.5253 361.298 61.976C359.847 63.3413 358.141 64.024 356.178 64.024H324.434C323.666 64.024 323.282 64.408 323.282 65.176V85.784C323.282 86.552 323.666 86.936 324.434 86.936H354.002C355.965 86.936 357.586 87.6187 358.866 88.984C360.231 90.3493 360.914 91.9707 360.914 93.848C360.914 95.7253 360.231 97.3467 358.866 98.712C357.586 99.992 355.965 100.632 354.002 100.632H324.434C323.666 100.632 323.282 101.016 323.282 101.784V127.384C323.282 128.152 323.666 128.536 324.434 128.536H356.178C358.141 128.536 359.847 129.261 361.298 130.712C362.749 132.077 363.474 133.741 363.474 135.704C363.474 137.667 362.749 139.373 361.298 140.824C359.847 142.275 358.141 143 356.178 143H312.658ZM406.968 103.576C396.728 100.163 389.304 96.024 384.696 91.16C380.173 86.296 377.912 80.408 377.912 73.496C377.912 65.7307 380.515 59.5867 385.72 55.064C390.925 50.5413 398.221 48.28 407.608 48.28C415.544 48.28 422.456 49.176 428.344 50.968C430.392 51.5653 432.013 52.8027 433.208 54.68C434.488 56.472 435.128 58.4773 435.128 60.696V61.848C435.128 63.4693 434.403 64.7493 432.952 65.688C431.501 66.5413 430.008 66.6693 428.472 66.072C422.072 63.5973 415.544 62.36 408.888 62.36C404.621 62.36 401.379 63.3413 399.16 65.304C396.941 67.2667 395.832 69.9973 395.832 73.496C395.832 79.64 399.843 84.0347 407.864 86.68C419.384 90.3493 427.363 94.5307 431.8 99.224C436.323 103.917 438.584 109.976 438.584 117.4C438.584 135.32 427.533 144.28 405.432 144.28C398.52 144.28 392.248 143.213 386.616 141.08C384.568 140.312 382.947 138.989 381.752 137.112C380.643 135.235 380.088 133.144 380.088 130.84V129.304C380.088 127.683 380.771 126.531 382.136 125.848C383.501 125.08 384.909 125.037 386.36 125.72C391.992 128.536 397.923 129.944 404.152 129.944C414.989 129.944 420.408 125.848 420.408 117.656C420.408 114.328 419.384 111.597 417.336 109.464C415.288 107.245 411.832 105.283 406.968 103.576ZM467.609 141.976L446.361 83.224C445.849 81.5173 446.062 79.9813 447.001 78.616C447.94 77.1653 449.305 76.44 451.097 76.44H454.937C457.07 76.44 459.033 77.1227 460.825 78.488C462.617 79.768 463.769 81.432 464.281 83.48L476.185 125.336C476.185 125.421 476.228 125.464 476.313 125.464C476.398 125.464 476.441 125.421 476.441 125.336L490.137 83.352C490.82 81.304 492.057 79.64 493.849 78.36C495.641 77.08 497.604 76.44 499.737 76.44H502.809C504.601 76.44 505.966 77.1653 506.905 78.616C507.929 80.0667 508.1 81.6027 507.417 83.224L476.185 164.376C475.417 166.424 474.137 168.045 472.345 169.24C470.553 170.52 468.548 171.16 466.329 171.16H463.257C461.55 171.16 460.185 170.435 459.161 168.984C458.222 167.619 458.094 166.125 458.777 164.504L467.609 144.024C467.78 143.683 467.865 143.341 467.865 143C467.865 142.659 467.78 142.317 467.609 141.976ZM539.244 116.12C530.284 114.157 523.884 111.469 520.044 108.056C516.289 104.643 514.412 100.205 514.412 94.744C514.412 88.6 516.673 83.8213 521.196 80.408C525.804 76.9093 532.588 75.16 541.548 75.16C547.18 75.16 552.769 75.672 558.316 76.696C560.193 77.0373 561.687 77.976 562.796 79.512C563.991 80.9627 564.588 82.6693 564.588 84.632C564.588 86.2533 563.948 87.576 562.668 88.6C561.388 89.5387 559.937 89.7947 558.316 89.368C553.537 88.1733 548.503 87.576 543.212 87.576C535.532 87.576 531.692 89.7093 531.692 93.976C531.692 96.024 532.417 97.7307 533.868 99.096C535.319 100.461 537.793 101.528 541.292 102.296C551.105 104.259 557.804 106.904 561.388 110.232C565.057 113.56 566.892 118.424 566.892 124.824C566.892 130.968 564.588 135.747 559.98 139.16C555.372 142.573 548.673 144.28 539.884 144.28C534.167 144.28 528.321 143.597 522.348 142.232C520.471 141.805 518.935 140.824 517.74 139.288C516.545 137.667 515.948 135.832 515.948 133.784C515.948 132.163 516.588 130.925 517.868 130.072C519.233 129.219 520.684 129.005 522.22 129.432C527.767 130.968 533.015 131.736 537.964 131.736C545.729 131.736 549.612 129.432 549.612 124.824C549.612 122.605 548.844 120.856 547.308 119.576C545.857 118.296 543.169 117.144 539.244 116.12ZM583.026 91.416C581.319 91.416 579.869 90.8187 578.674 89.624C577.479 88.344 576.882 86.8507 576.882 85.144C576.882 83.4373 577.479 81.9867 578.674 80.792C579.869 79.5973 581.319 79 583.026 79H589.17C589.938 79 590.322 78.616 590.322 77.848V61.976C590.322 60.0133 591.005 58.3067 592.37 56.856C593.821 55.4053 595.527 54.68 597.49 54.68H600.05C602.013 54.68 603.719 55.4053 605.17 56.856C606.621 58.3067 607.346 60.0133 607.346 61.976V77.848C607.346 78.616 607.73 79 608.498 79H623.09C624.797 79 626.247 79.5973 627.442 80.792C628.722 81.9867 629.362 83.4373 629.362 85.144C629.362 86.8507 628.722 88.344 627.442 89.624C626.247 90.8187 624.797 91.416 623.09 91.416H608.498C607.73 91.416 607.346 91.7573 607.346 92.44V118.296C607.346 123.843 607.943 127.427 609.138 129.048C610.333 130.669 612.807 131.48 616.562 131.48C618.61 131.48 620.146 131.395 621.17 131.224C622.877 131.053 624.37 131.437 625.65 132.376C626.93 133.315 627.57 134.595 627.57 136.216C627.57 138.093 626.93 139.8 625.65 141.336C624.455 142.787 622.962 143.597 621.17 143.768C617.415 144.109 614.599 144.28 612.722 144.28C604.445 144.28 598.642 142.531 595.314 139.032C591.986 135.448 590.322 129.091 590.322 119.96V92.44C590.322 91.7573 589.938 91.416 589.17 91.416H583.026ZM672.968 87.064C668.616 87.064 665.245 88.3013 662.856 90.776C660.552 93.1653 659.101 97.048 658.504 102.424C658.504 103.107 658.845 103.448 659.528 103.448H684.616C685.299 103.448 685.64 103.107 685.64 102.424C685.299 92.184 681.075 87.064 672.968 87.064ZM676.168 144.28C664.989 144.28 656.371 141.379 650.312 135.576C644.339 129.688 641.352 121.069 641.352 109.72C641.352 98.456 644.04 89.88 649.416 83.992C654.792 78.104 662.557 75.16 672.712 75.16C691.656 75.16 701.384 85.912 701.896 107.416C701.981 109.464 701.256 111.171 699.72 112.536C698.184 113.901 696.392 114.584 694.344 114.584H659.4C658.632 114.584 658.333 114.968 658.504 115.736C659.101 121.453 660.979 125.635 664.136 128.28C667.379 130.84 672.072 132.12 678.216 132.12C682.056 132.12 686.323 131.48 691.016 130.2C692.552 129.773 693.96 130.029 695.24 130.968C696.605 131.907 697.288 133.187 697.288 134.808C697.288 136.771 696.691 138.52 695.496 140.056C694.387 141.507 692.893 142.403 691.016 142.744C686.237 143.768 681.288 144.28 676.168 144.28ZM722.875 143C720.912 143 719.206 142.275 717.755 140.824C716.39 139.373 715.707 137.667 715.707 135.704V83.736C715.707 81.7733 716.39 80.0667 717.755 78.616C719.206 77.1653 720.912 76.44 722.875 76.44H724.667C726.63 76.44 728.294 77.1227 729.659 78.488C731.11 79.8533 731.878 81.5173 731.963 83.48V84.376C731.963 84.4613 732.006 84.504 732.091 84.504C732.262 84.504 732.347 84.4613 732.347 84.376C737.382 78.232 743.056 75.16 749.371 75.16C753.211 75.16 756.283 75.8853 758.587 77.336C760.976 78.7867 763.067 81.3467 764.859 85.016C764.859 85.1013 764.944 85.144 765.115 85.144C765.2 85.144 765.286 85.1013 765.371 85.016C770.747 78.4453 776.806 75.16 783.547 75.16C790.63 75.16 795.707 77.08 798.779 80.92C801.936 84.76 803.515 91.3733 803.515 100.76V135.704C803.515 137.667 802.79 139.373 801.339 140.824C799.974 142.275 798.31 143 796.347 143H794.171C792.208 143 790.502 142.275 789.051 140.824C787.6 139.373 786.875 137.667 786.875 135.704V103.32C786.875 97.0907 786.278 92.9947 785.083 91.032C783.888 89.0693 781.584 88.088 778.171 88.088C775.952 88.088 773.734 89.112 771.515 91.16C769.296 93.208 768.187 95.256 768.187 97.304V135.704C768.187 137.667 767.462 139.373 766.011 140.824C764.56 142.275 762.854 143 760.891 143H758.715C756.752 143 755.046 142.275 753.595 140.824C752.23 139.373 751.547 137.667 751.547 135.704V103.32C751.547 97.176 750.907 93.1227 749.627 91.16C748.432 89.112 746.128 88.088 742.715 88.088C740.496 88.088 738.278 89.112 736.059 91.16C733.84 93.208 732.731 95.256 732.731 97.304V135.704C732.731 137.667 732.006 139.373 730.555 140.824C729.104 142.275 727.398 143 725.435 143H722.875Z" fill="white"/>
<defs>
<clipPath id="clip0_1703_36119">
<rect width="173" height="173" fill="white" transform="translate(0 8.5)"/>
</clipPath>
</defs>
</svg>
